<svg width="206" height="40" viewBox="0 0 206 40" fill="none" xmlns="http://www.w3.org/2000/svg">
<path d="M0 24.7356V34.6667C0 37.6122 2.3537 40 5.25714 40H20.608C16.7113 31.7498 8.97437 26.0171 0 24.7356Z" fill="black"/>
<path d="M20.608 0H5.25714C2.3537 0 0 2.38781 0 5.33333V15.2645C8.97437 13.9791 16.7113 8.25024 20.608 0Z" fill="black"/>
<path d="M33.2571 0C33.2571 0 23.8727 15.8104 15.7258 20C23.8727 24.1896 33.2571 40 33.2571 40H40.7429C43.6463 40 46 37.6122 46 34.6667V5.33333C46 2.38781 43.6463 0 40.7429 0H33.2571Z" fill="black"/>
<path d="M71.1117 34C70.7539 34 70.4792 33.9036 70.2875 33.7107C70.0958 33.5179 70 33.2479 70 32.9007V8.09929C70 7.73929 70.0958 7.46929 70.2875 7.28929C70.4792 7.09643 70.7539 7 71.1117 7H74.2169C74.5747 7 74.8494 7.09643 75.0411 7.28929C75.2328 7.48215 75.3286 7.75214 75.3286 8.09929V17.2407C75.3286 17.3436 75.3478 17.4271 75.3861 17.4914C75.4372 17.5429 75.4947 17.5686 75.5586 17.5686C75.6481 17.5686 75.7311 17.5236 75.8078 17.4336L85.1425 7.57857C85.3469 7.37286 85.5514 7.225 85.7558 7.135C85.9731 7.045 86.2223 7 86.5034 7H90.7203C91.0142 7 91.2442 7.05786 91.4103 7.17357C91.5764 7.28929 91.6595 7.44357 91.6595 7.63643C91.6595 7.88072 91.5381 8.125 91.2953 8.36929L81.8073 17.935C81.7178 18.025 81.6731 18.1214 81.6731 18.2243C81.6731 18.2886 81.7051 18.3721 81.769 18.475L91.832 32.65C91.9981 32.8943 92.0812 33.1193 92.0812 33.325C92.0812 33.5307 91.9981 33.6979 91.832 33.8264C91.6787 33.9421 91.4486 34 91.142 34H87.1167C86.8228 34 86.5673 33.9421 86.35 33.8264C86.1456 33.7107 85.9603 33.5307 85.7942 33.2864L78.2038 22.1586C78.1271 22.0429 78.0313 21.985 77.9163 21.985C77.8268 21.985 77.7437 22.0236 77.6671 22.1007L75.5203 24.28C75.3925 24.4214 75.3286 24.5821 75.3286 24.7621V32.9007C75.3286 33.2607 75.2328 33.5371 75.0411 33.73C74.8494 33.91 74.5747 34 74.2169 34H71.1117Z" fill="black"/>
<path d="M104.085 34C102.65 34 101.404 33.6723 100.347 33.017C99.3021 32.3617 98.4966 31.4543 97.9303 30.2949C97.3765 29.1229 97.0996 27.7933 97.0996 26.3062V15.0775C97.0996 14.7246 97.1877 14.46 97.3639 14.2836C97.5527 14.0945 97.8233 14 98.1757 14H101.007C101.36 14 101.624 14.0945 101.8 14.2836C101.989 14.4726 102.083 14.7372 102.083 15.0775V25.966C102.083 26.7977 102.266 27.5161 102.631 28.121C103.009 28.7133 103.499 29.1607 104.103 29.4631C104.708 29.7656 105.356 29.9168 106.048 29.9168C106.765 29.9168 107.483 29.7404 108.2 29.3875C108.93 29.0221 109.528 28.5495 109.993 27.9698C110.094 27.8311 110.144 27.6736 110.144 27.4972V15.0775C110.144 14.7246 110.233 14.46 110.409 14.2836C110.598 14.0945 110.868 14 111.221 14H114.071C114.424 14 114.694 14.0945 114.883 14.2836C115.072 14.4726 115.166 14.7372 115.166 15.0775V32.4688C115.166 32.8217 115.072 33.0926 114.883 33.2817C114.694 33.4581 114.424 33.5463 114.071 33.5463H111.221C110.868 33.5463 110.598 33.4518 110.409 33.2628C110.233 33.0737 110.144 32.8091 110.144 32.4688V31.5236C110.144 31.3094 110.082 31.2023 109.956 31.2023C109.893 31.2023 109.811 31.259 109.71 31.3724C109.018 32.2294 108.194 32.8847 107.237 33.3384C106.293 33.7795 105.242 34 104.085 34Z" fill="black"/>
<path d="M121.302 34C120.942 34 120.666 33.9052 120.473 33.7156C120.281 33.5261 120.185 33.2607 120.185 32.9194V15.4787C120.185 15.1248 120.281 14.8594 120.473 14.6825C120.666 14.4929 120.942 14.3981 121.302 14.3981H124.191C124.551 14.3981 124.827 14.4929 125.02 14.6825C125.212 14.872 125.309 15.1374 125.309 15.4787V16.4455C125.309 16.5466 125.321 16.6288 125.347 16.6919C125.386 16.7425 125.431 16.7678 125.482 16.7678C125.559 16.7678 125.649 16.7046 125.752 16.5782C126.394 15.7441 127.177 15.1058 128.102 14.6635C129.026 14.2212 130.009 14 131.049 14C132.154 14 133.162 14.2464 134.073 14.7393C134.985 15.2196 135.717 15.9336 136.269 16.8815C136.347 17.0205 136.43 17.09 136.52 17.09C136.61 17.09 136.693 17.0332 136.77 16.9194C137.451 15.9463 138.311 15.2196 139.352 14.7393C140.392 14.2464 141.528 14 142.761 14C144.11 14 145.272 14.2907 146.248 14.872C147.237 15.4408 147.988 16.2622 148.502 17.3365C149.028 18.3981 149.292 19.6619 149.292 21.128V32.9194C149.292 33.2733 149.195 33.545 149.003 33.7346C148.81 33.9115 148.534 34 148.174 34H145.265C144.906 34 144.63 33.9052 144.437 33.7156C144.257 33.5261 144.167 33.2607 144.167 32.9194V21.4123C144.167 20.2875 143.904 19.4471 143.378 18.891C142.851 18.3349 142.158 18.0569 141.297 18.0569C140.565 18.0569 139.846 18.2401 139.14 18.6066C138.433 18.9605 137.875 19.4281 137.464 20.0095C137.361 20.1485 137.31 20.3065 137.31 20.4834V32.9194C137.31 33.2733 137.213 33.545 137.021 33.7346C136.841 33.9115 136.571 34 136.212 34H133.284C132.924 34 132.648 33.9052 132.455 33.7156C132.276 33.5261 132.186 33.2607 132.186 32.9194V21.4123C132.186 20.2875 131.916 19.4471 131.377 18.891C130.85 18.3349 130.157 18.0569 129.296 18.0569C128.577 18.0569 127.858 18.2464 127.139 18.6256C126.432 18.9921 125.874 19.4724 125.463 20.0663C125.36 20.218 125.309 20.376 125.309 20.5403V32.9194C125.309 33.2733 125.212 33.545 125.02 33.7346C124.827 33.9115 124.551 34 124.191 34H121.302Z" fill="black"/>
<path d="M161.295 34C159.86 34 158.614 33.6723 157.557 33.017C156.512 32.3617 155.707 31.4543 155.141 30.2949C154.587 29.1229 154.31 27.7933 154.31 26.3062V15.0775C154.31 14.7246 154.398 14.46 154.574 14.2836C154.763 14.0945 155.034 14 155.386 14H158.218C158.57 14 158.834 14.0945 159.011 14.2836C159.199 14.4726 159.294 14.7372 159.294 15.0775V25.966C159.294 26.7977 159.476 27.5161 159.841 28.121C160.219 28.7133 160.71 29.1607 161.314 29.4631C161.918 29.7656 162.566 29.9168 163.258 29.9168C163.976 29.9168 164.693 29.7404 165.41 29.3875C166.14 29.0221 166.738 28.5495 167.204 27.9698C167.304 27.8311 167.355 27.6736 167.355 27.4972V15.0775C167.355 14.7246 167.443 14.46 167.619 14.2836C167.808 14.0945 168.078 14 168.431 14H171.281C171.634 14 171.904 14.0945 172.093 14.2836C172.282 14.4726 172.376 14.7372 172.376 15.0775V32.4688C172.376 32.8217 172.282 33.0926 172.093 33.2817C171.904 33.4581 171.634 33.5463 171.281 33.5463H168.431C168.078 33.5463 167.808 33.4518 167.619 33.2628C167.443 33.0737 167.355 32.8091 167.355 32.4688V31.5236C167.355 31.3094 167.292 31.2023 167.166 31.2023C167.103 31.2023 167.021 31.259 166.921 31.3724C166.228 32.2294 165.404 32.8847 164.448 33.3384C163.504 33.7795 162.453 34 161.295 34Z" fill="black"/>
<path d="M178.49 34C178.137 34 177.867 33.9055 177.678 33.7164C177.489 33.5274 177.395 33.2628 177.395 32.9225V15.5312C177.395 15.1783 177.489 14.9137 177.678 14.7372C177.867 14.5482 178.137 14.4537 178.49 14.4537H181.322C181.674 14.4537 181.944 14.5482 182.133 14.7372C182.322 14.9263 182.416 15.1909 182.416 15.5312V16.4764C182.416 16.6906 182.479 16.7977 182.605 16.7977C182.681 16.7977 182.763 16.741 182.851 16.6276C183.543 15.758 184.361 15.1027 185.305 14.6616C186.261 14.2205 187.318 14 188.476 14C189.911 14 191.151 14.3277 192.195 14.983C193.253 15.6383 194.058 16.552 194.612 17.724C195.178 18.8834 195.461 20.2067 195.461 21.6938V32.9225C195.461 33.2754 195.367 33.5463 195.178 33.7353C195.002 33.9118 194.738 34 194.385 34H191.553C191.201 34 190.931 33.9055 190.742 33.7164C190.566 33.5274 190.477 33.2628 190.477 32.9225V22.034C190.477 21.2023 190.289 20.4902 189.911 19.8979C189.546 19.293 189.062 18.8393 188.457 18.5369C187.853 18.2344 187.205 18.0832 186.513 18.0832C185.796 18.0832 185.072 18.2659 184.342 18.6314C183.625 18.9842 183.033 19.4505 182.567 20.0302C182.467 20.1689 182.416 20.3264 182.416 20.5028V32.9225C182.416 33.2754 182.322 33.5463 182.133 33.7353C181.944 33.9118 181.674 34 181.322 34H178.49Z" fill="black"/>
<path d="M201.574 34C201.222 34 200.951 33.9033 200.763 33.7099C200.574 33.5164 200.48 33.2456 200.48 32.8975V15.1025C200.48 14.7415 200.574 14.4707 200.763 14.2901C200.951 14.0967 201.222 14 201.574 14H204.404C204.756 14 205.026 14.0967 205.215 14.2901C205.404 14.4836 205.498 14.7544 205.498 15.1025V32.8975C205.498 33.2585 205.404 33.5358 205.215 33.7292C205.026 33.9097 204.756 34 204.404 34H201.574Z" fill="black"/>
<path d="M206 9C206 10.6569 204.652 12 202.989 12C201.326 12 199.978 10.6569 199.978 9C199.978 7.34315 201.326 6 202.989 6C204.652 6 206 7.34315 206 9Z" fill="black"/>
</svg>
