<svg width="52" height="52" viewBox="0 0 52 52" fill="none" xmlns="http://www.w3.org/2000/svg">
<path d="M19.6228 16.3799C22.9522 16.38 25.6844 19.0364 25.6844 22.3545C25.6843 24.9578 24.0022 27.1532 21.6697 27.9785C21.9153 28.3246 22.103 28.6831 22.2566 29.0127C22.5737 29.6932 22.7234 30.1395 23.0144 30.666C23.2683 31.1252 23.5499 31.4706 23.9451 31.7168C24.1195 31.8254 24.3996 31.9424 24.8123 32.0801C25.0108 32.1463 25.2215 32.2112 25.448 32.2812C25.6704 32.35 25.9089 32.424 26.1443 32.502C26.6076 32.6554 27.1186 32.8444 27.5711 33.0977C28.0169 33.3472 28.5091 33.7152 28.8103 34.2783C28.9471 34.534 29.0443 34.8014 29.1062 35.0723C29.2568 34.9444 29.4082 34.8101 29.5584 34.668C30.7852 33.5072 31.092 32.4255 31.1404 31.6924C31.1655 31.3124 31.1221 31.0011 31.076 30.793C31.053 30.6894 31.0294 30.6128 31.0144 30.5684C31.0071 30.5466 31.0018 30.5326 30.9998 30.5273V30.5264C31.0002 30.5273 31.0009 30.5293 31.0017 30.5312L31.0027 30.5332L30.9656 30.4336C30.7945 29.9032 31.0489 29.3188 31.5701 29.0898C32.1261 28.8458 32.7749 29.0985 33.0193 29.6543L32.0926 30.0615C32.997 29.6644 33.0195 29.6558 33.0203 29.6562L33.0213 29.6572L33.0222 29.6602C33.0231 29.6621 33.0242 29.6647 33.0252 29.667C33.0271 29.6715 33.0296 29.6768 33.032 29.6826C33.037 29.6947 33.0428 29.7102 33.0496 29.7275C33.0633 29.7626 33.0806 29.8087 33.0994 29.8643C33.137 29.9757 33.1828 30.1287 33.2244 30.3164C33.3075 30.6914 33.3769 31.2147 33.3357 31.8379C33.2515 33.1119 32.7083 34.7156 31.0701 36.2656C29.5111 37.7406 27.9046 38.5672 26.6805 39.0254C26.0684 39.2545 25.5497 39.3922 25.1765 39.4736C24.9899 39.5144 24.8387 39.5416 24.7303 39.5586C24.6763 39.5671 24.6327 39.573 24.6004 39.5771C24.5844 39.5792 24.5707 39.5808 24.5603 39.582C24.5552 39.5826 24.5504 39.5836 24.5467 39.584H24.5398L24.5389 39.585L24.4685 38.9121H24.4676L24.5379 39.585L24.4812 39.5908H24.4334C24.4276 39.591 24.4137 39.5912 24.3933 39.5928C24.3518 39.5959 24.2843 39.6025 24.201 39.6172C24.029 39.6476 23.8148 39.7075 23.6131 39.8145C23.417 39.9186 23.2441 40.0614 23.117 40.2637C22.9922 40.4624 22.8709 40.7819 22.8709 41.3057C22.8709 41.7214 23.0031 41.9284 23.1453 42.0645C23.3202 42.2316 23.6031 42.3723 23.99 42.4648C24.3685 42.5553 24.7672 42.5811 25.0847 42.5811C25.2396 42.581 25.3675 42.5752 25.4539 42.5693C25.4969 42.5664 25.53 42.5634 25.5496 42.5615L25.5506 42.5605C33.2115 41.4326 37.6344 37.3784 39.2264 33.3115C40.8284 29.2182 39.614 25.1717 36.0701 23.4121C34.7726 22.7679 32.8455 22.73 31.076 22.9248C30.2212 23.0189 29.4575 23.16 28.908 23.2783C28.6341 23.3373 28.4149 23.3902 28.2664 23.4277C28.1925 23.4464 28.1362 23.4618 28.0994 23.4717C28.0811 23.4766 28.0667 23.4801 28.0584 23.4824C28.0545 23.4835 28.0502 23.484 28.0486 23.4844C27.4642 23.6494 26.8566 23.3099 26.6912 22.7256C26.5263 22.1414 26.8659 21.5337 27.45 21.3682H27.4519L27.4529 21.3672C27.4541 21.3669 27.456 21.3667 27.4578 21.3662C27.4616 21.3651 27.467 21.3631 27.4734 21.3613C27.4864 21.3577 27.5049 21.3529 27.5281 21.3467C27.575 21.3341 27.643 21.3165 27.7283 21.2949C27.899 21.2518 28.1433 21.1929 28.4451 21.1279C29.0476 20.9982 29.8871 20.8417 30.8347 20.7373C32.6702 20.5352 35.1481 20.4978 37.0486 21.4414C41.8442 23.8225 43.1919 29.2159 41.2752 34.1133C39.8203 37.8303 36.512 41.2962 31.3972 43.2969C31.4912 43.4971 31.5832 43.7153 31.6541 43.9492C31.8202 44.4973 31.9151 45.2059 31.6746 45.9336C31.4236 46.6926 30.8595 47.313 30.0086 47.749C28.4801 48.532 27.1248 47.7825 26.2615 46.9893C25.5378 46.3242 24.9356 45.4429 24.5008 44.7568C24.1873 44.7333 23.8366 44.6899 23.4793 44.6045C22.8847 44.4624 22.1861 44.1918 21.6248 43.6553C21.4895 43.5259 21.3671 43.3846 21.2576 43.2324L18.8113 42.8711C18.7217 42.9536 18.6331 43.0313 18.5447 43.1016C17.4922 43.9384 16.1644 43.8737 15.1687 43.5029C14.5984 43.2904 13.865 42.9837 13.3123 42.6172C12.8956 42.3408 12.4884 41.9698 12.1531 41.6328C11.147 40.6213 10.6183 39.0082 11.325 37.5234C11.4417 37.2783 11.5893 37.0132 11.7713 36.75C11.7097 34.9196 11.9091 32.4759 12.7498 30.4209C13.3367 28.9865 14.284 27.6543 15.7176 26.9229C14.4016 25.83 13.5614 24.1942 13.5613 22.3545C13.5613 19.0364 16.2933 16.3799 19.6228 16.3799ZM29.2918 44.0049C28.5644 44.2125 27.8067 44.3922 27.0183 44.542C27.25 44.8484 27.4943 45.1343 27.7498 45.3691C28.361 45.9307 28.713 45.9409 29.0056 45.791C29.436 45.5705 29.5468 45.3607 29.5857 45.2432C29.6348 45.0944 29.637 44.8797 29.5486 44.5879C29.4871 44.3849 29.3922 44.1847 29.2918 44.0049ZM14.9031 37.2256C14.1666 37.2258 13.6737 37.7074 13.3113 38.4688C13.0934 38.9265 13.2019 39.5673 13.7127 40.0811C14.0066 40.3765 14.2925 40.6269 14.5281 40.7832C14.8596 41.003 15.3936 41.2392 15.9363 41.4414C16.4934 41.6489 16.9311 41.5741 17.1756 41.3799C17.3131 41.2705 17.4411 41.1481 17.5486 41.0137C17.6397 40.8997 17.7142 40.7794 17.7693 40.6533C18.0819 39.9377 17.9245 39.1274 17.3504 38.4219C16.7686 37.7072 15.8457 37.2256 14.9031 37.2256ZM18.2693 28.5371C16.5518 28.5371 15.4747 29.5706 14.7859 31.2539C14.3038 32.4324 14.0657 33.8316 13.9881 35.1357C14.2689 35.0659 14.5733 35.0264 14.9031 35.0264C16.5664 35.0264 18.0955 35.8525 19.0564 37.0332C19.8855 38.052 20.3506 39.4247 20.0193 40.8262L20.6863 40.9238C20.7384 40.208 20.9371 39.5982 21.2547 39.0928C21.5622 38.6035 21.9534 38.2557 22.3445 38.0098C21.785 37.6977 21.2226 37.3345 20.6892 36.9443C19.9046 36.3704 19.1567 35.7207 18.5545 35.0664C17.9741 34.4359 17.4408 33.7077 17.2166 32.9717C17.0397 32.3906 17.368 31.7756 17.949 31.5986C18.5297 31.4222 19.1439 31.7496 19.3211 32.3301C19.4 32.5891 19.6637 33.0232 20.1726 33.5762C20.6599 34.1055 21.2954 34.6613 21.9881 35.168C22.6806 35.6745 23.4051 36.1135 24.0623 36.4209C24.747 36.7412 25.2523 36.8681 25.5389 36.8682C26.2629 36.8681 26.6528 36.5727 26.8308 36.2969C27.02 36.0034 27.0411 35.6367 26.8699 35.3164C26.8499 35.2792 26.7674 35.1691 26.4969 35.0176C26.2323 34.8695 25.8822 34.733 25.4529 34.5908C25.2421 34.521 25.025 34.4538 24.7986 34.3838C24.5762 34.315 24.3424 34.2422 24.117 34.167C23.6817 34.0218 23.1906 33.8394 22.782 33.585C21.9644 33.0757 21.4535 32.3913 21.0887 31.7314C20.7612 31.1391 20.4646 30.3762 20.2625 29.9424C20.0216 29.4255 19.811 29.1023 19.5535 28.8936C19.3269 28.7099 18.967 28.5372 18.2693 28.5371ZM19.6228 18.5791C17.4715 18.5791 15.7605 20.2879 15.7605 22.3545C15.7606 24.4211 17.4716 26.1299 19.6228 26.1299C21.774 26.1298 23.4851 24.421 23.4851 22.3545C23.4851 20.2879 21.774 18.5792 19.6228 18.5791ZM31.2283 4.07617C35.5627 4.07641 39.1101 7.53333 39.1101 11.8389C39.1101 16.1444 35.5627 19.6013 31.2283 19.6016C26.8937 19.6016 23.3465 16.1446 23.3465 11.8389C23.3465 7.53318 26.8937 4.07617 31.2283 4.07617ZM31.2283 6.27539C28.0719 6.27539 25.5457 8.78471 25.5457 11.8389C25.5457 14.893 28.0719 17.4023 31.2283 17.4023C34.3845 17.4021 36.9099 14.8929 36.9099 11.8389C36.9099 8.78485 34.3845 6.27563 31.2283 6.27539Z" fill="currentColor"/>
<path d="M16.9023 3.52734C17.5099 3.52734 18.0029 4.01944 18.0029 4.62695C18.0027 5.2343 17.5097 5.72656 16.9023 5.72656H6.2002V20.4277C6.2 21.0351 5.70798 21.5283 5.10059 21.5283C4.49319 21.5283 4.00117 21.0351 4.00098 20.4277V3.52734H16.9023Z" fill="currentColor"/>
<path d="M40.0947 48.0801C39.4874 48.0799 38.9951 47.5878 38.9951 46.9805C38.9952 46.3731 39.4874 45.8811 40.0947 45.8809H45.8008V40.1787C45.8008 39.5713 46.293 39.0783 46.9004 39.0781C47.5079 39.0781 47.9999 39.5712 48 40.1787V48.0801H40.0947Z" fill="currentColor"/>
</svg>
