<svg width="52" height="52" viewBox="0 0 52 52" fill="none" xmlns="http://www.w3.org/2000/svg">
<path d="M44 26C44 22.44 42.9443 18.9598 40.9665 15.9997C38.9886 13.0397 36.1774 10.7326 32.8883 9.37017C29.5992 8.00779 25.98 7.65133 22.4884 8.34587C18.9967 9.0404 15.7894 10.7547 13.2721 13.2721C10.7547 15.7894 9.0404 18.9967 8.34586 22.4884C7.65133 25.9801 8.00779 29.5993 9.37017 32.8883C10.7325 36.1774 13.0397 38.9886 15.9997 40.9665C18.9598 42.9444 22.4399 44.0001 26 44.0001" stroke="currentColor" stroke-width="2.2" stroke-linecap="round"/>
<path d="M26.9912 16.1963C29.7788 16.1964 32.1055 18.1709 32.6514 20.7969L34.1543 20.7979C34.8164 20.7983 35.3541 21.336 35.3545 21.998C35.3543 22.6605 34.8166 23.1979 34.1543 23.1982L32.6426 23.1973C32.0829 25.8046 29.7666 27.7593 26.9922 27.7598H22.0459V34.6025C22.0459 35.2651 21.5082 35.8024 20.8457 35.8027C20.183 35.8027 19.6455 35.2653 19.6455 34.6025V23.1943H17.8457C17.1831 23.1942 16.6455 22.6568 16.6455 21.9941C16.6461 21.3319 17.1834 20.7939 17.8457 20.7939H19.6455V17.5967C19.6455 17.5629 19.6467 17.5292 19.6494 17.4961C19.6468 17.4635 19.6455 17.4298 19.6455 17.3965C19.6461 16.7343 20.1834 16.1973 20.8457 16.1973L26.9912 16.1963ZM22.0459 25.3594H26.9922C28.4294 25.359 29.6555 24.4619 30.1445 23.1973L22.0459 23.1953V25.3594ZM22.0459 20.7949L30.1592 20.7969C29.6797 19.5126 28.4425 18.5969 26.9912 18.5967H22.0459V20.7949Z" fill="currentColor"/>
<path d="M37.5194 30.3936C37.9855 29.9851 38.6974 29.9969 39.1532 30.4073L39.247 30.501L39.5321 30.8037C39.8387 31.111 40.2029 31.4185 40.5546 31.5889C40.8298 31.7222 41.2814 31.8138 41.7948 31.8633C42.2887 31.9109 42.7653 31.9137 43.0429 31.9092C43.5457 31.9014 43.9484 32.2844 43.9999 32.7569L44.0058 32.8526L44.0185 33.1827C44.0274 33.305 44.0417 33.4363 44.0644 33.5645C44.1133 33.8419 44.1851 34.0086 44.2392 34.0762C44.3033 34.1563 44.4116 34.2435 44.5663 34.3262C44.7175 34.407 44.8838 34.4685 45.0302 34.5127C45.507 34.6569 45.9421 35.1184 45.8974 35.7344C45.8532 36.3362 45.7358 37.5166 45.4433 38.7989C45.1541 40.0658 44.6767 41.5102 43.87 42.586C42.2613 44.7308 39.4981 45.6268 38.7372 45.8438C38.4745 45.9187 38.1982 45.9187 37.9354 45.8438C37.1749 45.627 34.4116 44.7311 32.8026 42.586C31.9799 41.4889 31.4994 40.041 31.2118 38.7735C30.9213 37.4925 30.8121 36.321 30.7724 35.7246C30.7319 35.114 31.1619 34.6557 31.6395 34.5137L31.8798 34.4317C31.961 34.4002 32.0427 34.3646 32.119 34.3243C32.2783 34.24 32.3727 34.1587 32.4169 34.0987C32.4744 34.0202 32.5453 33.8394 32.5956 33.5567C32.6422 33.2944 32.6585 33.0234 32.663 32.835L32.6698 32.7403C32.728 32.2742 33.1282 31.8998 33.6249 31.9082L34.1747 31.9063C34.3935 31.9005 34.64 31.888 34.8895 31.8643C35.4124 31.8147 35.855 31.7222 36.1054 31.5948C36.5579 31.3642 37.0632 30.8831 37.4237 30.4883L37.5194 30.3936ZM38.328 31.5664C37.9433 31.9731 37.3615 32.5267 36.7411 32.8428C36.2397 33.0981 35.5699 33.2059 35.0224 33.2578C34.6663 33.2916 34.3207 33.3017 34.037 33.3057C34.0235 33.4603 34.0041 33.6301 33.9735 33.8018C33.9133 34.1403 33.798 34.5846 33.5438 34.9297C33.326 35.2253 33.0288 35.4264 32.7733 35.5616C32.5697 35.6692 32.3616 35.7462 32.1825 35.8057C32.2189 36.2786 32.2945 37.0099 32.4472 37.8311H36.5585C36.4729 38.0482 36.4238 38.2838 36.4237 38.5313C36.4237 38.7785 36.4721 39.0146 36.5575 39.2315H32.7743C33.0425 40.1672 33.414 41.0667 33.9228 41.7452C34.9468 43.1106 36.6105 43.8934 37.6366 44.2705V40.3096C37.8535 40.395 38.0896 40.4444 38.3368 40.4444C38.5841 40.4443 38.8201 40.3952 39.037 40.3096V44.2705C40.0632 43.8933 41.7262 43.1101 42.7499 41.7452C43.2493 41.079 43.6177 40.1766 43.8866 39.2315H40.1151C40.2006 39.0146 40.2489 38.7785 40.2489 38.5313C40.2489 38.2839 40.1997 38.0481 40.1142 37.8311H44.2138C44.3669 37.0114 44.4458 36.2793 44.4853 35.8047C44.0999 35.6745 43.5249 35.424 43.1464 34.9512C42.8675 34.6028 42.7459 34.1498 42.6854 33.8077C42.6548 33.634 42.6359 33.4622 42.6239 33.3057C42.3457 33.3013 42.0089 33.2905 41.6601 33.2569C41.1135 33.2042 40.4542 33.0957 39.9442 32.8487C39.2908 32.5321 38.7089 31.9769 38.328 31.5664Z" fill="currentColor"/>
<path fill-rule="evenodd" clip-rule="evenodd" d="M38.3364 36.6182C39.3928 36.6182 40.2494 37.4749 40.2495 38.5313C40.2495 39.5877 39.3928 40.4444 38.3364 40.4444C37.2801 40.4442 36.4233 39.5876 36.4233 38.5313C36.4234 37.475 37.2801 36.6183 38.3364 36.6182ZM34.7212 34.9697C34.7823 34.8131 35.0038 34.8131 35.0649 34.9697L35.2387 35.4141C35.2649 35.4812 35.328 35.5269 35.3999 35.5313L35.8774 35.5586C36.045 35.5687 36.1128 35.7793 35.9829 35.8858L35.6137 36.1885C35.558 36.2342 35.5341 36.3082 35.5522 36.3779L35.6733 36.8399C35.7159 37.0025 35.5365 37.1328 35.395 37.042L34.9926 36.7842C34.932 36.7455 34.854 36.7453 34.7934 36.7842L34.3921 37.042C34.2505 37.1328 34.0711 37.0025 34.1137 36.8399L34.2348 36.3779C34.2529 36.3083 34.2289 36.2342 34.1733 36.1885L33.8032 35.8858C33.6737 35.7791 33.7421 35.5685 33.9096 35.5586L34.3862 35.5313C34.4582 35.5271 34.5211 35.4812 34.5473 35.4141L34.7212 34.9697ZM41.6089 34.9697C41.67 34.8131 41.8915 34.8131 41.9526 34.9697L42.1264 35.4141C42.1527 35.4813 42.2155 35.5271 42.2876 35.5313L42.7641 35.5586C42.9319 35.5684 43.0004 35.7792 42.8706 35.8858L42.5014 36.1885C42.4457 36.2342 42.4217 36.3082 42.4399 36.3779L42.561 36.8399C42.6036 37.0025 42.4242 37.1326 42.2827 37.042L41.8803 36.7842C41.8197 36.7454 41.7418 36.7454 41.6811 36.7842L41.2788 37.042C41.1373 37.1327 40.9579 37.0025 41.0005 36.8399L41.1215 36.3779C41.1397 36.3082 41.1158 36.2342 41.06 36.1885L40.6909 35.8858C40.561 35.7792 40.6295 35.5684 40.7973 35.5586L41.2739 35.5313C41.3459 35.5271 41.4088 35.4813 41.435 35.4141L41.6089 34.9697ZM38.1655 33.4385C38.2268 33.2823 38.4481 33.2821 38.5092 33.4385L38.6831 33.8838C38.7094 33.9508 38.7723 33.9968 38.8442 34.001L39.3208 34.0283C39.4884 34.0382 39.5569 34.2489 39.4272 34.3555L39.0571 34.6582C39.0015 34.7039 38.9774 34.778 38.9956 34.8477L39.1167 35.3096C39.1593 35.4723 38.9799 35.6025 38.8383 35.5117L38.437 35.2539C38.3763 35.215 38.2985 35.2152 38.2378 35.2539L37.8354 35.5117C37.6939 35.6025 37.5145 35.4722 37.5571 35.3096L37.6782 34.8477C37.6965 34.7779 37.6724 34.704 37.6167 34.6582L37.2475 34.3555C37.1174 34.2489 37.1861 34.0381 37.354 34.0283L37.8305 34.001C37.9024 33.9967 37.9654 33.9508 37.9917 33.8838L38.1655 33.4385Z" fill="currentColor"/>
</svg>
