<svg width="52" height="52" viewBox="0 0 52 52" fill="none" xmlns="http://www.w3.org/2000/svg">
<path d="M7.09888 37.0947C9.55161 33.376 14.1951 32.16 18.3079 33.5605L23.1243 34.7256L32.0295 33.9229C32.4749 33.8828 32.9477 33.9395 33.3752 34.0947C33.6864 34.2078 34.0283 34.3935 34.3069 34.6836L42.5598 33.9814C43.8574 33.8669 45.2793 34.4843 45.8069 35.7676C46.4557 37.3463 45.382 38.8093 43.9641 39.2695L23.3811 45.9463C23.2718 45.9818 23.1572 45.9999 23.0422 46H7.29028C6.74654 46 6.28403 45.603 6.20239 45.0654L7.29028 44.9004L6.20239 45.0645V45.0625C6.20222 45.0614 6.20164 45.0601 6.20142 45.0586C6.20091 45.0552 6.20029 45.0506 6.19946 45.0449C6.19777 45.0333 6.19551 45.0167 6.19263 44.9961C6.18685 44.9548 6.17865 44.8952 6.16919 44.8203C6.15027 44.6705 6.12569 44.4565 6.10083 44.1943C6.0512 43.6709 6.00089 42.9458 5.99927 42.1436C5.99767 41.3447 6.04408 40.4458 6.19653 39.5811C6.34688 38.7284 6.61257 37.8321 7.09888 37.0947ZM17.6497 35.6592C14.336 34.5074 10.7714 35.5235 8.93579 38.3066C8.68252 38.6908 8.48727 39.2556 8.36255 39.9629C8.23996 40.6582 8.19703 41.4192 8.19849 42.1396C8.19976 42.7667 8.23577 43.346 8.27466 43.7998H22.8684L43.2854 37.1768C43.5528 37.0899 43.6934 36.9468 43.7512 36.8457C43.8023 36.7561 43.8046 36.6823 43.7727 36.6045C43.6993 36.4259 43.343 36.1197 42.7512 36.1729H42.7463L34.6975 36.8594C34.6709 36.9232 34.6427 36.9866 34.6106 37.0469C34.309 37.6135 33.7727 38.0435 33.1428 38.248L23.3811 41.415C22.8032 41.6025 22.1828 41.2859 21.9954 40.708C21.8081 40.1302 22.1246 39.5097 22.7024 39.3223L32.4641 36.1562C32.4835 36.1499 32.5009 36.1397 32.5178 36.1318C32.4268 36.1124 32.324 36.1056 32.2268 36.1143L23.1399 36.9326C23.0204 36.9434 22.8991 36.9344 22.7825 36.9062L17.7522 35.6895C17.7177 35.6811 17.6832 35.6708 17.6497 35.6592Z" fill="currentColor"/>
<path d="M28.1088 6.51758C31.3227 3.1572 36.4018 3.16087 39.6117 6.52832C42.7961 9.86914 42.7958 15.2561 39.6127 18.5977L39.6136 18.5986L27.5238 31.3438C26.6957 32.2163 25.305 32.2164 24.4769 31.3438L12.3871 18.5986V18.5977C9.20444 15.256 9.2049 9.86897 12.389 6.52832C15.5989 3.16085 20.678 3.15722 23.892 6.51758H23.8929L26.0004 8.66992L28.1088 6.51758ZM24.5599 22C24.4128 22.4258 24.0207 22.7195 23.5707 22.7402C23.1207 22.7608 22.7035 22.5043 22.5179 22.0938L21.1117 18.9834L20.4105 20.7754C20.2454 21.1969 19.8388 21.4746 19.3861 21.4746H18.1478L26.0004 29.752L33.8529 21.4746H32.6146C32.2433 21.4745 31.8968 21.2866 31.6937 20.9756L31.098 20.0635L29.4691 23.3916C29.2696 23.7989 28.84 24.0422 28.3881 24.0039C27.936 23.9654 27.5531 23.653 27.4252 23.2178L25.9154 18.0781L24.5599 22ZM22.0863 7.82227C19.7375 5.58673 16.254 5.66107 13.9808 8.0459C11.6803 10.4596 11.6083 14.3394 13.765 16.8447L13.9808 17.083L13.9828 17.085L16.0599 19.2744H18.6351L20.015 15.751C20.1764 15.3393 20.5691 15.0643 21.0111 15.0527C21.4533 15.0414 21.8601 15.2962 22.0424 15.6992L23.3832 18.667L24.9603 14.1045L25.0316 13.9424C25.2253 13.5823 25.6082 13.3545 26.0267 13.3643C26.5049 13.3757 26.9211 13.6954 27.056 14.1543L28.7377 19.8789L29.973 17.3574C30.147 17.0022 30.4991 16.7676 30.8939 16.7432C31.2886 16.719 31.6659 16.9092 31.8822 17.2402L33.2103 19.2744H35.9408L38.0179 17.085L38.0199 17.083C40.3948 14.5914 40.3948 10.5375 38.0199 8.0459C35.7467 5.66106 32.2632 5.5867 29.9144 7.82227L29.6801 8.05664L26.7865 11.0117C26.5796 11.223 26.2961 11.3418 26.0004 11.3418C25.7047 11.3418 25.4211 11.223 25.2142 11.0117L22.3207 8.05664L22.0863 7.82227Z" fill="currentColor"/>
</svg>
