<svg width="52" height="52" viewBox="0 0 52 52" fill="none" xmlns="http://www.w3.org/2000/svg">
<path d="M30.6885 13.2109C33.1469 13.211 34.7838 14.3771 35.1348 16.2109H36C36.5523 16.2109 37 16.6587 37 17.2109C37 17.7632 36.5523 18.2109 36 18.2109H35.0312C34.4705 20.0533 32.625 21.2109 30.4502 21.2109H29.1123V24.2295C29.1121 24.7765 28.6535 25.2109 28.0762 25.2109C27.4818 25.2109 27.0236 24.7766 27.0234 24.2295V18.2109H26C25.4477 18.2109 25 17.7632 25 17.2109C25 16.6587 25.4477 16.2109 26 16.2109H27.0234V14.209C27.0234 13.6457 27.4816 13.2109 28.0762 13.2109H30.6885ZM29.1123 18.2109V19.4248H30.5186C31.5621 19.4247 32.3439 18.9027 32.7559 18.2109H29.1123ZM29.1123 15.0137V16.2109H32.9248C32.5862 15.4232 31.719 15.0137 30.5186 15.0137H29.1123Z" fill="currentColor"/>
<path d="M7.09888 37.0947C9.55161 33.376 14.1951 32.16 18.3079 33.5605L23.1243 34.7256L32.0295 33.9229C32.4749 33.8828 32.9477 33.9395 33.3752 34.0947C33.6864 34.2078 34.0283 34.3935 34.3069 34.6836L42.5598 33.9814C43.8574 33.8669 45.2793 34.4843 45.8069 35.7676C46.4557 37.3463 45.382 38.8093 43.9641 39.2695L23.3811 45.9463C23.2718 45.9818 23.1572 45.9999 23.0422 46H7.29028C6.74654 46 6.28403 45.603 6.20239 45.0654L7.29028 44.9004L6.20239 45.0645V45.0625C6.20222 45.0614 6.20164 45.0601 6.20142 45.0586C6.20091 45.0552 6.20029 45.0506 6.19946 45.0449C6.19777 45.0333 6.19551 45.0167 6.19263 44.9961C6.18685 44.9548 6.17865 44.8952 6.16919 44.8203C6.15027 44.6705 6.12569 44.4565 6.10083 44.1943C6.0512 43.6709 6.00089 42.9458 5.99927 42.1436C5.99767 41.3447 6.04408 40.4458 6.19653 39.5811C6.34688 38.7284 6.61257 37.8321 7.09888 37.0947ZM17.6497 35.6592C14.336 34.5074 10.7714 35.5235 8.93579 38.3066C8.68252 38.6908 8.48727 39.2556 8.36255 39.9629C8.23996 40.6582 8.19703 41.4192 8.19849 42.1396C8.19976 42.7667 8.23577 43.346 8.27466 43.7998H22.8684L43.2854 37.1768C43.5528 37.0899 43.6934 36.9468 43.7512 36.8457C43.8023 36.7561 43.8046 36.6823 43.7727 36.6045C43.6993 36.4259 43.343 36.1197 42.7512 36.1729H42.7463L34.6975 36.8594C34.6709 36.9232 34.6427 36.9866 34.6106 37.0469C34.309 37.6135 33.7727 38.0435 33.1428 38.248L23.3811 41.415C22.8032 41.6025 22.1828 41.2859 21.9954 40.708C21.8081 40.1302 22.1246 39.5097 22.7024 39.3223L32.4641 36.1562C32.4835 36.1499 32.5009 36.1397 32.5178 36.1318C32.4268 36.1124 32.324 36.1056 32.2268 36.1143L23.1399 36.9326C23.0204 36.9434 22.8991 36.9344 22.7825 36.9062L17.7522 35.6895C17.7177 35.6811 17.6832 35.6708 17.6497 35.6592Z" fill="currentColor"/>
<path d="M27.3005 6.26089C29.825 5.74982 32.4445 5.99454 34.8308 6.96401C37.217 7.93353 39.2648 9.58518 40.7175 11.7121C42.1702 13.839 42.9638 16.3475 42.9988 18.923C43.0337 21.4984 42.3082 24.027 40.9138 26.1925C39.5194 28.358 37.5178 30.0648 35.1589 31.0988C32.7998 32.1327 30.1876 32.4484 27.6501 32.006C25.1127 31.5636 22.7614 30.3827 20.8914 28.6115C20.4507 28.1938 20.432 27.4978 20.8494 27.0568C21.2671 26.6157 21.964 26.597 22.405 27.0148C23.961 28.4883 25.9169 29.471 28.0281 29.839C30.1393 30.207 32.3123 29.9443 34.2751 29.0841C36.2379 28.2239 37.9039 26.8038 39.0642 25.0021C40.2244 23.2003 40.8275 21.0961 40.7986 18.9533C40.7695 16.8104 40.1098 14.723 38.9011 12.9533C37.6924 11.1835 35.9882 9.80883 34.0027 9.0021C32.0172 8.19547 29.8376 7.99191 27.7371 8.41714C25.6366 8.84242 23.7076 9.87828 22.1921 11.3937C21.7627 11.8225 21.0669 11.8225 20.6375 11.3937C20.2079 10.9642 20.208 10.2676 20.6375 9.83804C22.4587 8.01676 24.7761 6.772 27.3005 6.26089ZM18.0994 23.0001C18.7067 23.0001 19.1988 23.4924 19.199 24.0998C19.199 24.7073 18.7069 25.1994 18.0994 25.1994H16.0994C15.4919 25.1994 14.9998 24.7073 14.9998 24.0998C15 23.4924 15.492 23.0001 16.0994 23.0001H18.0994ZM18.0994 18.0001C18.7067 18.0001 19.1988 18.4924 19.199 19.0998C19.199 19.7073 18.7069 20.1994 18.0994 20.1994H13.0994C12.4919 20.1994 11.9998 19.7073 11.9998 19.0998C12 18.4924 12.492 18.0001 13.0994 18.0001H18.0994ZM18.0994 13.0001C18.7067 13.0001 19.1988 13.4924 19.199 14.0998C19.199 14.7073 18.7069 15.1994 18.0994 15.1994H10.0994C9.49185 15.1994 8.99976 14.7073 8.99976 14.0998C8.99997 13.4924 9.49199 13.0001 10.0994 13.0001H18.0994Z" fill="currentColor"/>
</svg>
