<svg width="52" height="52" viewBox="0 0 52 52" fill="none" xmlns="http://www.w3.org/2000/svg">
<path d="M33 19.037V7C33 5.34315 31.6569 4 30 4L12 4C10.3431 4 9 5.34315 9 7L9 31.0022C9 31.4138 9.46959 31.6491 9.79931 31.4027L12.6663 29.2601C12.8678 29.1095 13.1498 29.1321 13.3248 29.3128L15.5786 31.64C15.7711 31.8387 16.0882 31.8434 16.2865 31.6506L19.0144 28.9967" stroke="currentColor" stroke-width="2.2" stroke-linecap="round" stroke-linejoin="round"/>
<path d="M27.9961 13C28.5484 13 28.9961 13.4477 28.9961 14C28.9961 14.5523 28.5484 15 27.9961 15H25.9961C25.4439 14.9999 24.9961 14.5522 24.9961 14C24.9961 13.4478 25.4439 13.0001 25.9961 13H27.9961ZM28 9C28.5521 9.00026 29 9.44788 29 10C29 10.5521 28.5521 10.9997 28 11H24C23.4477 11 23 10.5523 23 10C23 9.44772 23.4477 9 24 9H28Z" fill="currentColor"/>
<path d="M43.3374 46.935L43.3374 23C43.3374 21.3431 41.9943 20 40.3374 20L22.3374 20C20.6805 20 19.3374 21.3431 19.3374 23L19.3374 33.9604L19.3374 46.9464C19.3374 47.3537 19.7982 47.5901 20.129 47.3526L22.9212 45.3481C23.1195 45.2057 23.3916 45.2273 23.5649 45.3992L25.5568 47.3748C25.7412 47.5577 26.0349 47.569 26.2327 47.4008L28.6136 45.3768C28.8003 45.2181 29.0745 45.2181 29.2613 45.3768L31.6421 47.4008C31.8399 47.569 32.1336 47.5577 32.318 47.3748L34.258 45.4507C34.453 45.2574 34.7673 45.2574 34.9622 45.4507L36.8762 47.349C37.0711 47.5423 37.3855 47.5423 37.5804 47.349L39.5242 45.4211C39.707 45.2398 39.9976 45.227 40.1957 45.3914L42.518 47.3196C42.8438 47.5902 43.3374 47.3585 43.3374 46.935Z" stroke="currentColor" stroke-width="2.2" stroke-linecap="round" stroke-linejoin="round"/>
<path d="M39.3379 40C39.89 40.0003 40.3379 40.4479 40.3379 41C40.3379 41.5521 39.89 41.9997 39.3379 42H25.3379C24.7856 42 24.3379 41.5523 24.3379 41C24.3379 40.4477 24.7856 40 25.3379 40H39.3379ZM39.3379 36C39.89 36.0003 40.3379 36.4479 40.3379 37C40.3379 37.5521 39.89 37.9997 39.3379 38H33.3379C32.7856 38 32.3379 37.5523 32.3379 37C32.3379 36.4477 32.7856 36 33.3379 36H39.3379ZM39.3379 32C39.89 32.0003 40.3379 32.4479 40.3379 33C40.3379 33.5521 39.89 33.9997 39.3379 34H33.3379C32.7856 34 32.3379 33.5523 32.3379 33C32.3379 32.4477 32.7856 32 33.3379 32H39.3379Z" fill="currentColor"/>
<path d="M25.9263 22.8363C26.3755 22.3112 27.1653 22.2779 27.6568 22.7377L27.7505 22.8363L28.6031 23.8344L29.9165 23.8793C30.6528 23.9047 31.1932 24.5816 31.0542 25.3051L30.8052 26.5941L31.5884 27.6488C32.0279 28.2403 31.8353 29.0846 31.1831 29.4271L30.0191 30.0375L29.6841 31.307C29.5694 31.7409 29.2345 32.0484 28.8384 32.1566V34.5502C28.8384 34.8475 28.5252 35.0414 28.2593 34.9086L26.9273 34.2426C26.871 34.2145 26.8048 34.2144 26.7486 34.2426L25.4175 34.9086C25.1516 35.0416 24.8384 34.8475 24.8384 34.5502V32.1566C24.4421 32.0485 24.1075 31.741 23.9927 31.307L23.6568 30.0375L22.4937 29.4271C21.8412 29.0847 21.6489 28.2403 22.0884 27.6488L22.8706 26.5941L22.6226 25.3051C22.4836 24.5815 23.0238 23.9045 23.7603 23.8793L25.0728 23.8344L25.9263 22.8363ZM26.1743 25.0082C25.9557 25.2637 25.6393 25.4156 25.3033 25.4271L24.2818 25.4613L24.4761 26.4652C24.5397 26.7956 24.4609 27.1375 24.2603 27.4076L23.6509 28.2269L24.5562 28.7025C24.8167 28.8392 25.0171 29.0659 25.1206 29.3383L25.1587 29.4584L25.4195 30.4457L26.355 30.0346L26.4722 29.9896C26.7102 29.9134 26.9666 29.9133 27.2046 29.9896L27.3218 30.0346L28.2564 30.4457L28.5181 29.4584L28.5562 29.3383C28.6598 29.066 28.8601 28.8392 29.1206 28.7025L30.0249 28.2269L29.4165 27.4076C29.2158 27.1375 29.1371 26.7957 29.2007 26.4652L29.3941 25.4613L28.3736 25.4271C28.0374 25.4156 27.7212 25.2638 27.5025 25.0082L26.8384 24.2308L26.1743 25.0082Z" fill="currentColor"/>
<path d="M17.2417 8.32129C18.6937 8.32167 19.9164 9.31009 20.27 10.6543H20.6978C21.1394 10.6545 21.4976 11.0124 21.4976 11.4541C21.4973 11.8956 21.1393 12.2537 20.6978 12.2539H20.269C19.9158 13.5946 18.6965 14.5865 17.2417 14.5869H15.3433V16.5449C15.3429 16.9864 14.9841 17.3447 14.5425 17.3447C14.1012 17.3443 13.743 16.9862 13.7427 16.5449V12.2539H13.3745C12.9328 12.2539 12.5749 11.8957 12.5747 11.4541C12.5747 11.0123 12.9327 10.6543 13.3745 10.6543H13.7427V9.16797C13.7427 9.15465 13.744 9.14109 13.7446 9.12793C13.7446 9.12565 13.7446 9.12338 13.7446 9.12109C13.7446 8.67927 14.1026 8.32129 14.5444 8.32129H17.2417ZM15.3433 12.2539V12.9873H17.2417C17.795 12.987 18.2781 12.6927 18.5474 12.2539H15.3433ZM15.3423 10.6543H18.5474C18.2779 10.2145 17.7943 9.92119 17.2417 9.9209H15.3423V10.6543Z" fill="currentColor"/>
</svg>
