<svg width="52" height="52" viewBox="0 0 52 52" fill="none" xmlns="http://www.w3.org/2000/svg">
<path d="M7.09888 37.0947C9.55161 33.376 14.1951 32.16 18.3079 33.5605L23.1243 34.7256L32.0295 33.9229C32.4749 33.8828 32.9477 33.9395 33.3752 34.0947C33.6864 34.2078 34.0283 34.3935 34.3069 34.6836L42.5598 33.9814C43.8574 33.8669 45.2793 34.4843 45.8069 35.7676C46.4557 37.3463 45.382 38.8093 43.9641 39.2695L23.3811 45.9463C23.2718 45.9818 23.1572 45.9999 23.0422 46H7.29028C6.74654 46 6.28403 45.603 6.20239 45.0654L7.29028 44.9004L6.20239 45.0645V45.0625C6.20222 45.0614 6.20164 45.0601 6.20142 45.0586C6.20091 45.0552 6.20029 45.0506 6.19946 45.0449C6.19777 45.0333 6.19551 45.0167 6.19263 44.9961C6.18685 44.9548 6.17865 44.8952 6.16919 44.8203C6.15027 44.6705 6.12569 44.4565 6.10083 44.1943C6.0512 43.6709 6.00089 42.9458 5.99927 42.1436C5.99767 41.3447 6.04408 40.4458 6.19653 39.5811C6.34688 38.7284 6.61257 37.8321 7.09888 37.0947ZM17.6497 35.6592C14.336 34.5074 10.7714 35.5235 8.93579 38.3066C8.68252 38.6908 8.48727 39.2556 8.36255 39.9629C8.23996 40.6582 8.19703 41.4192 8.19849 42.1396C8.19976 42.7667 8.23577 43.346 8.27466 43.7998H22.8684L43.2854 37.1768C43.5528 37.0899 43.6934 36.9468 43.7512 36.8457C43.8023 36.7561 43.8046 36.6823 43.7727 36.6045C43.6993 36.4259 43.343 36.1197 42.7512 36.1729H42.7463L34.6975 36.8594C34.6709 36.9232 34.6427 36.9866 34.6106 37.0469C34.309 37.6135 33.7727 38.0435 33.1428 38.248L23.3811 41.415C22.8032 41.6025 22.1828 41.2859 21.9954 40.708C21.8081 40.1302 22.1246 39.5097 22.7024 39.3223L32.4641 36.1562C32.4835 36.1499 32.5009 36.1397 32.5178 36.1318C32.4268 36.1124 32.324 36.1056 32.2268 36.1143L23.1399 36.9326C23.0204 36.9434 22.8991 36.9344 22.7825 36.9062L17.7522 35.6895C17.7177 35.6811 17.6832 35.6708 17.6497 35.6592Z" fill="currentColor"/>
<path d="M25.5181 4.26505L7.59312 14.1238C6.90234 14.5037 6.90234 15.4963 7.59312 15.8762L25.5181 25.7349C25.8182 25.9 26.1818 25.9 26.4819 25.7349L44.4069 15.8762C45.0977 15.4963 45.0977 14.5037 44.4069 14.1238L26.4819 4.26506C26.1818 4.10001 25.8182 4.10001 25.5181 4.26505Z" stroke="currentColor" stroke-width="2.2"/>
<path d="M43.099 16.7051V22.4887" stroke="currentColor" stroke-width="2.2" stroke-linecap="round"/>
<path d="M38 20.0439V26.3151C38 26.621 37.8634 26.9072 37.6175 27.089C36.1557 28.1689 30.7766 31.8995 26.2278 31.8944C21.689 31.8892 15.9704 28.1666 14.4094 27.0886C14.1477 26.9079 14 26.6115 14 26.2935V20.0439" stroke="currentColor" stroke-width="2.2" stroke-linecap="round"/>
<circle cx="43" cy="24.4888" r="2" stroke="currentColor" stroke-width="2.2"/>
</svg>
