<svg width="52" height="52" viewBox="0 0 52 52" fill="none" xmlns="http://www.w3.org/2000/svg">
<path d="M11.5287 12.6826C12.7938 12.6827 13.9323 13.4514 14.4047 14.625L16.0004 18.5908L16.0717 18.4893C17.3316 16.6885 19.3916 15.6164 21.5893 15.6162C25.2321 15.6162 28.2149 18.513 28.3207 22.1543L28.3979 24.8223H36.0219C37.3209 24.8223 38.4823 25.6325 38.9311 26.8516L42.4584 36.4326C43.2358 38.5451 41.9658 40.857 39.766 41.335C38.022 41.7136 36.2554 40.7962 35.5629 39.1514L32.7631 32.501H31.352C31.3685 32.5368 31.3855 32.5724 31.4018 32.6084C31.4295 32.6698 31.4582 32.731 31.4848 32.793C31.5326 32.9045 31.5774 33.0175 31.6215 33.1309C31.6459 33.1935 31.6705 33.2562 31.6938 33.3193C31.734 33.4288 31.7722 33.5393 31.809 33.6504C31.8358 33.7313 31.8612 33.8128 31.8861 33.8945C31.9003 33.9409 31.9136 33.9876 31.9272 34.0342C31.9635 34.1596 31.9978 34.2859 32.0297 34.4131C32.0549 34.5135 32.0787 34.6144 32.101 34.7158C32.1112 34.7624 32.1226 34.8087 32.1322 34.8555C32.1611 34.9954 32.186 35.1365 32.2094 35.2783C32.216 35.3183 32.2228 35.3583 32.2289 35.3984C32.2518 35.5478 32.2709 35.6983 32.2875 35.8496C32.2919 35.8899 32.2962 35.9303 32.3002 35.9707C32.3151 36.1219 32.3278 36.2738 32.3363 36.4268C32.3388 36.47 32.3403 36.5133 32.3422 36.5566C32.3455 36.6313 32.3483 36.7062 32.35 36.7812C32.3531 36.8147 32.3549 36.8486 32.3549 36.8828C32.3549 36.8981 32.3526 36.9136 32.352 36.9287C32.3523 36.965 32.3549 37.0017 32.3549 37.0381C32.3549 37.0965 32.3509 37.1547 32.35 37.2129L34.1069 42.8213C34.2245 43.1964 34.5721 43.452 34.9652 43.4521H44.8988C45.506 43.4524 45.9982 43.9446 45.9985 44.5518C45.9984 45.1591 45.5061 45.6521 44.8988 45.6523H34.9652C33.6103 45.6521 32.4122 44.7716 32.0072 43.4785L31.3871 41.498C29.6397 45.3369 25.7102 48.0008 21.1664 48.001C15.0113 48.0009 9.97936 43.1156 9.97892 37.0381C9.97892 36.9978 9.97946 36.9572 9.9799 36.917C9.97956 36.9058 9.97892 36.8941 9.97892 36.8828C9.97893 36.8615 9.98065 36.8404 9.98185 36.8193C10.0481 33.496 11.6234 30.5408 14.0512 28.5781C13.9536 28.2367 13.8998 27.8766 13.8998 27.5039V22.4365C13.8999 21.8885 14.0682 21.3534 14.3822 20.9043L14.4945 20.7422L12.3637 15.4463C12.2266 15.1056 11.8959 14.8819 11.5287 14.8818H9.55021C9.24993 14.8821 8.96902 15.0325 8.80216 15.2822L8.01505 16.4609C7.67741 16.9656 6.99363 17.1011 6.48869 16.7637C5.98432 16.4262 5.84818 15.7431 6.18498 15.2383L6.97306 14.0596C7.54816 13.1992 8.51531 12.6829 9.55021 12.6826H11.5287ZM21.6244 28.2852C21.3248 29.7585 20.1958 30.9295 18.7455 31.29L19.5736 32.5938C19.8989 33.1065 19.7474 33.7867 19.2348 34.1123C18.7222 34.4372 18.0428 34.2856 17.7172 33.7734L15.8979 30.9092C15.6639 30.778 15.4446 30.624 15.2436 30.4492C13.6663 31.7982 12.5837 33.6702 12.2729 35.7832H16.1225C16.7296 35.7835 17.2219 36.2757 17.2221 36.8828C17.2221 37.4902 16.7298 37.9822 16.1225 37.9824H12.2309C12.4938 40.3662 13.7401 42.4707 15.5727 43.8945L17.7074 40.417C18.0254 39.8999 18.7026 39.7371 19.2201 40.0547C19.7376 40.3724 19.8998 41.0507 19.5824 41.5684L17.4623 45.0215C18.5903 45.5196 19.8432 45.8008 21.1664 45.8008C22.4856 45.8007 23.7345 45.5207 24.8598 45.0254L22.7611 41.7188C22.4358 41.2061 22.5877 40.5259 23.1 40.2002C23.6128 39.8749 24.293 40.0265 24.6186 40.5391L26.7514 43.9004C28.5882 42.4764 29.8377 40.3696 30.101 37.9824H26.2104C25.603 37.9823 25.1108 37.4902 25.1108 36.8828C25.111 36.2756 25.6031 35.7833 26.2104 35.7832H30.059C29.9528 35.0606 29.7578 34.3661 29.4819 33.7109C29.3797 33.4685 29.2653 33.2321 29.142 33.001C28.5771 31.9419 27.7983 31.0075 26.8559 30.2549C26.7818 30.1957 26.7063 30.138 26.6303 30.0811L24.6264 33.3486C24.3087 33.8663 23.6305 34.0285 23.1127 33.7109C22.5952 33.3931 22.4337 32.7159 22.7514 32.1982L24.7211 28.9863C23.7647 28.5844 22.7213 28.3388 21.6244 28.2852ZM21.1664 33.9189C22.8916 33.9192 24.3332 35.2926 24.3334 37.0391C24.3334 38.7858 22.8917 40.1599 21.1664 40.1602C19.4409 40.1601 17.9994 38.786 17.9994 37.0391C17.9997 35.2924 19.441 33.919 21.1664 33.9189ZM21.5893 17.8154C20.1096 17.8156 18.7227 18.5386 17.8744 19.751L16.185 22.165C16.1294 22.2446 16.0991 22.3395 16.099 22.4365V27.5039C16.0992 28.4436 16.8616 29.2055 17.8012 29.2061C18.7412 29.2061 19.5042 28.4439 19.5043 27.5039V24.252C19.5043 23.8256 19.6223 23.4074 19.8451 23.0439L21.3471 20.5957C21.6646 20.0781 22.342 19.9152 22.8598 20.2324C23.3776 20.5501 23.5398 21.2283 23.2221 21.7461L21.7201 24.1943C21.7096 24.2116 21.7035 24.2317 21.7035 24.252V26.0879C24.1496 26.2017 26.3952 27.0877 28.1879 28.5049L28.1899 28.5039C28.2083 28.5185 28.2262 28.5341 28.2445 28.5488C28.2651 28.5653 28.2856 28.582 28.3061 28.5986C28.4237 28.6943 28.5402 28.7914 28.6537 28.8916L28.6801 28.915C28.6871 28.9213 28.6936 28.9283 28.7006 28.9346C28.8117 29.0339 28.9207 29.1357 29.0277 29.2393C29.0469 29.2578 29.0663 29.2763 29.0854 29.2949C29.1857 29.3935 29.2838 29.4944 29.3803 29.5967C29.4111 29.6293 29.4427 29.6614 29.4731 29.6943C29.5615 29.7903 29.6479 29.8883 29.7328 29.9873C29.7707 30.0314 29.8079 30.0764 29.8451 30.1211C29.8966 30.1831 29.9462 30.2466 29.9965 30.3096C30.0407 30.3041 30.0856 30.3008 30.1313 30.3008L32.8305 30.3018C33.6223 30.3021 34.3418 30.7472 34.6986 31.4443L34.7651 31.5869L37.5902 38.2979C37.8718 38.9664 38.5903 39.3393 39.2992 39.1855C40.1935 38.9912 40.7091 38.0512 40.393 37.1924L36.8666 27.6113C36.7363 27.2575 36.3989 27.0225 36.0219 27.0225H28.1664C27.1053 27.0221 26.2363 26.1779 26.2055 25.1172L26.1215 22.2178C26.0501 19.7662 24.0419 17.8154 21.5893 17.8154ZM21.1664 36.1182C20.609 36.1182 20.1989 36.5539 20.1986 37.0391C20.1986 37.5244 20.6088 37.9599 21.1664 37.96C21.7238 37.9597 22.1332 37.5242 22.1332 37.0391C22.133 36.5541 21.7236 36.1185 21.1664 36.1182ZM23.4067 4.00098C26.4668 4.00098 28.9905 6.43273 28.9906 9.48438C28.9905 12.536 26.4667 14.9678 23.4067 14.9678C20.3469 14.9674 17.8238 12.5357 17.8236 9.48438C17.8237 6.43296 20.3468 4.00133 23.4067 4.00098ZM23.4067 6.2002C21.5148 6.20055 20.023 7.69452 20.0229 9.48438C20.023 11.2742 21.5148 12.7672 23.4067 12.7676C25.2988 12.7676 26.7903 11.2744 26.7904 9.48438C26.7903 7.69431 25.2988 6.2002 23.4067 6.2002Z" fill="currentColor"/>
</svg>
