<svg width="32" height="32" viewBox="0 0 32 32" fill="none" xmlns="http://www.w3.org/2000/svg">
<path d="M13.2285 19.0846V26.9989H18.7676V19.0846C18.7676 18.8415 18.6703 18.6084 18.4972 18.4365C18.3241 18.2645 18.0893 18.168 17.8444 18.168H14.1517C13.9069 18.168 13.672 18.2645 13.4989 18.4365C13.3258 18.6084 13.2285 18.8415 13.2285 19.0846Z" stroke="white" stroke-width="2" stroke-linecap="round" stroke-linejoin="round"/>
<path d="M26.1534 12.7599V27H5.84349V12.7599M26.1534 12.7599C25.415 13.1829 24.5519 13.3393 23.7106 13.2025C22.8693 13.0657 22.1015 12.6442 21.5375 12.0094C20.8605 12.7697 19.8709 13.25 18.768 13.25C18.244 13.2505 17.7259 13.14 17.2483 12.9259C16.7707 12.7117 16.3446 12.3989 15.9985 12.0082C15.3215 12.7697 14.3318 13.25 13.2289 13.25C12.7049 13.2505 12.1868 13.14 11.7092 12.9259C11.2316 12.7117 10.8055 12.3989 10.4594 12.0082C9.89553 12.6432 9.12784 13.0649 8.28652 13.2019C7.44521 13.3389 6.58206 13.1828 5.84349 12.7599M26.1534 12.7599C26.6441 12.4787 27.0629 12.0891 27.3777 11.6214C27.6924 11.1537 27.8946 10.6203 27.9684 10.0626C28.0423 9.50492 27.986 8.93781 27.8038 8.40517C27.6217 7.87254 27.3185 7.38867 26.9178 6.991L25.453 5.53778C25.1071 5.19386 24.6378 5.00043 24.1483 5H7.8474C7.35806 5.0001 6.88877 5.19309 6.54264 5.53656L5.0791 6.991C4.67935 7.38912 4.37701 7.87308 4.19539 8.40557C4.01378 8.93805 3.95774 9.50483 4.03159 10.0622C4.10545 10.6196 4.30723 11.1527 4.62137 11.6204C4.93551 12.0881 5.35363 12.478 5.84349 12.7599" stroke="white" stroke-width="2" stroke-linecap="round" stroke-linejoin="round"/>
<path d="M8.28652 13.2019C7.44521 13.3389 6.58206 13.1828 5.84349 12.7599C5.35363 12.478 4.93551 12.0881 4.62137 11.6204C4.30723 11.1527 4.10545 10.6196 4.03159 10.0622C3.95774 9.50483 4.01378 8.93805 4.19539 8.40557C4.37701 7.87308 4.67935 7.38912 5.0791 6.991L6.54264 5.53656C6.88877 5.19309 7.35806 5.0001 7.8474 5H24.1483C24.6378 5.00043 25.1071 5.19386 25.453 5.53778L26.9178 6.991C27.3185 7.38867 27.6217 7.87254 27.8038 8.40517C27.986 8.93781 28.0423 9.50492 27.9684 10.0626C27.8946 10.6203 27.6924 11.1537 27.3777 11.6214C27.0629 12.0891 26.6441 12.4787 26.1534 12.7599C25.415 13.1829 24.5519 13.3393 23.7106 13.2025C22.8693 13.0657 22.1015 12.6442 21.5375 12.0094C20.8605 12.7697 19.8709 13.25 18.768 13.25C18.244 13.2505 17.7259 13.14 17.2483 12.9259C16.7707 12.7117 16.3446 12.3989 15.9985 12.0082C15.3215 12.7697 14.3318 13.25 13.2289 13.25C12.7049 13.2505 12.1868 13.14 11.7092 12.9259C11.2316 12.7117 10.8055 12.3989 10.4594 12.0082C9.89553 12.6432 9.12784 13.0649 8.28652 13.2019Z" stroke="white" stroke-width="2" stroke-linecap="round" stroke-linejoin="round"/>
</svg>
