<svg width="24" height="24" viewBox="0 0 24 24" fill="none" xmlns="http://www.w3.org/2000/svg">
<path d="M3 4.22727C3 3.54982 3.54982 3 4.22727 3H9.13636C9.81382 3 10.3636 3.54982 10.3636 4.22727V9.13636C10.3636 9.81382 9.81382 10.3636 9.13636 10.3636H4.22727C3.90178 10.3636 3.58962 10.2343 3.35946 10.0042C3.1293 9.77402 3 9.46186 3 9.13636V4.22727ZM3 14.8636C3 14.1862 3.54982 13.6364 4.22727 13.6364H9.13636C9.81382 13.6364 10.3636 14.1862 10.3636 14.8636V19.7727C10.3636 20.4502 9.81382 21 9.13636 21H4.22727C3.90178 21 3.58962 20.8707 3.35946 20.6405C3.1293 20.4104 3 20.0982 3 19.7727V14.8636ZM13.6364 4.22727C13.6364 3.54982 14.1862 3 14.8636 3H19.7727C20.4502 3 21 3.54982 21 4.22727V9.13636C21 9.81382 20.4502 10.3636 19.7727 10.3636H14.8636C14.5381 10.3636 14.226 10.2343 13.9958 10.0042C13.7657 9.77402 13.6364 9.46186 13.6364 9.13636V4.22727Z" stroke="black" stroke-width="1.5" stroke-linecap="round" stroke-linejoin="round"/>
<path d="M6.27344 6.27344H7.09162V7.09162H6.27344V6.27344ZM6.27344 16.9098H7.09162V17.728H6.27344V16.9098ZM16.9098 6.27344H17.728V7.09162H16.9098V6.27344ZM13.6371 13.6371H14.4553V14.4553H13.6371V13.6371ZM13.6371 20.1825H14.4553V21.0007H13.6371V20.1825ZM20.1825 13.6371H21.0007V14.4553H20.1825V13.6371ZM20.1825 20.1825H21.0007V21.0007H20.1825V20.1825ZM16.9098 16.9098H17.728V17.728H16.9098V16.9098Z" stroke="black" stroke-width="1.5" stroke-linecap="round" stroke-linejoin="round"/>
</svg>
