<svg width="32" height="32" viewBox="0 0 32 32" fill="none" xmlns="http://www.w3.org/2000/svg">
<path d="M24.4365 5C25.3797 5.00009 26.2848 5.37283 26.9531 6.03711C27.6217 6.70167 27.998 7.60412 27.998 8.5459V23.4551C27.998 24.3968 27.6216 25.2993 26.9531 25.9639C26.2848 26.628 25.3796 26.9999 24.4365 27H7.5625C6.61921 27 5.71331 26.6282 5.04492 25.9639C4.3764 25.2993 4.00003 24.3968 4 23.4551V8.5459C4 7.60418 4.37646 6.70166 5.04492 6.03711C5.71332 5.3727 6.61916 5 7.5625 5H24.4365ZM7.5625 13.9551C7.0141 13.9551 6.48896 14.1716 6.10254 14.5557C5.71638 14.9396 5.50007 15.4591 5.5 16V23.4551C5.50003 23.996 5.71639 24.5155 6.10254 24.8994C6.48896 25.2835 7.0141 25.5 7.5625 25.5H24.4365C24.9848 25.4999 25.5101 25.2834 25.8965 24.8994C26.2825 24.5155 26.498 23.9959 26.498 23.4551V16C26.498 15.4592 26.2825 14.9395 25.8965 14.5557C25.5101 14.1716 24.9848 13.9552 24.4365 13.9551H20.4336C20.2781 14.865 19.844 15.7116 19.1797 16.3721C18.3355 17.2112 17.191 17.6816 15.999 17.6816C14.8072 17.6816 13.6635 17.2112 12.8193 16.3721C12.1548 15.7115 11.72 14.8652 11.5645 13.9551H7.5625ZM7.5625 10.2275C7.01411 10.2275 6.48895 10.444 6.10254 10.8281C5.71637 11.212 5.50011 11.7316 5.5 12.2725V13.1104C6.09902 12.6869 6.81888 12.4551 7.5625 12.4551H12.249C12.6632 12.4551 12.999 12.7909 12.999 13.2051C12.9991 13.9931 13.315 14.75 13.877 15.3086C14.4391 15.8672 15.2022 16.1816 15.999 16.1816C16.796 16.1816 17.5599 15.8674 18.1221 15.3086C18.684 14.75 18.9989 13.9931 18.999 13.2051C18.999 12.7909 19.3348 12.4551 19.749 12.4551H24.4365C25.1797 12.4551 25.8993 12.6863 26.498 13.1094V12.2725C26.4979 11.7317 26.2825 11.212 25.8965 10.8281C25.5101 10.4441 24.9848 10.2276 24.4365 10.2275H7.5625ZM7.5625 6.5C7.01415 6.5 6.48895 6.71654 6.10254 7.10059C5.71628 7.48454 5.5 8.00485 5.5 8.5459V9.38281C6.099 8.95939 6.81891 8.72754 7.5625 8.72754H24.4365C25.1799 8.72761 25.8992 8.95959 26.498 9.38281V8.5459C26.498 8.00493 26.2826 7.48453 25.8965 7.10059C25.5101 6.71656 24.9848 6.50009 24.4365 6.5H7.5625Z" fill="white"/>
</svg>
