<svg width="32" height="32" viewBox="0 0 32 32" fill="none" xmlns="http://www.w3.org/2000/svg">
<path d="M16 18.9424C18.3014 18.9424 20.54 19.1197 22.2344 19.7021C23.0871 19.9953 23.874 20.4155 24.4561 21.0322C25.0605 21.6727 25.4004 22.482 25.4004 23.4336C25.4004 24.3874 25.0574 25.1968 24.4492 25.835C23.8642 26.4489 23.0742 26.8639 22.2207 27.1533C20.5245 27.7284 18.2875 27.9004 16 27.9004C15.4478 27.9004 15.0002 27.4525 15 26.9004C15 26.3481 15.4477 25.9004 16 25.9004C18.2442 25.9004 20.2078 25.7247 21.5791 25.2598C22.2591 25.0292 22.72 24.751 23.002 24.4551C23.2607 24.1834 23.4004 23.866 23.4004 23.4336C23.4004 22.9992 23.2604 22.6793 23.002 22.4053C22.7209 22.1075 22.2618 21.8268 21.584 21.5938C20.217 21.1238 18.2549 20.9424 16 20.9424C13.7556 20.9424 11.7915 21.1182 10.4199 21.583C9.73988 21.8135 9.27911 22.0908 8.99707 22.3867C8.73808 22.6585 8.59766 22.9763 8.59766 23.4092C8.59774 23.9675 8.83099 24.3823 9.36328 24.7461C9.94484 25.1435 10.8545 25.4487 12.0742 25.6436C12.6195 25.7307 12.9914 26.2437 12.9043 26.7891C12.8171 27.3343 12.304 27.7052 11.7588 27.6182C10.4241 27.405 9.17357 27.0394 8.23438 26.3975C7.24616 25.722 6.59776 24.7293 6.59766 23.4092C6.59766 22.4551 6.94058 21.6451 7.54883 21.0068C8.13403 20.3928 8.92463 19.9778 9.77832 19.6885C11.4748 19.1135 13.7125 18.9424 16 18.9424Z" fill="white"/>
<path d="M15.9989 4.09863C19.5352 4.09866 22.3834 6.99388 22.3836 10.542C22.3834 14.0898 19.5354 16.9863 15.9989 16.9863H15.9579C12.4327 16.9741 9.60156 14.0767 9.61313 10.5391C9.61491 6.99205 12.4639 4.09875 15.9989 4.09863ZM15.9989 6.09961C13.5872 6.09972 11.6133 8.07842 11.6131 10.542V10.5459C11.6053 12.9997 13.5647 14.978 15.9647 14.9863H15.9989C18.4101 14.9863 20.3834 13.0061 20.3836 10.542C20.3834 8.07809 18.4104 6.09964 15.9989 6.09961Z" fill="white"/>
</svg>
