<svg width="32" height="32" viewBox="0 0 32 32" fill="none" xmlns="http://www.w3.org/2000/svg">
<path fill-rule="evenodd" clip-rule="evenodd" d="M7.91534 7.061C11.3871 3.84288 16.3175 3.08004 20.4788 4.76705C20.9905 4.97461 21.237 5.55807 21.0296 6.06979C20.8221 6.5814 20.2395 6.82782 19.7278 6.62057C16.1498 5.16989 11.8941 5.89771 8.99834 8.7944C5.97355 11.8194 5.31623 16.302 7.01397 19.9721C7.02109 19.9875 7.02815 20.0033 7.03448 20.019C7.15042 20.3074 7.14541 20.6255 7.14092 20.7846C7.13502 20.9937 7.11183 21.2315 7.08428 21.4682C7.05636 21.7082 7.0204 21.9742 6.98467 22.2407C6.94844 22.5109 6.91217 22.787 6.88018 23.063C6.8151 23.6243 6.77571 24.1386 6.79327 24.5444C6.80135 24.7309 6.821 24.8652 6.84307 24.9546C6.93239 24.9767 7.0672 24.9972 7.2542 25.0053C7.65992 25.0228 8.17451 24.9835 8.73565 24.9184C9.01128 24.8865 9.287 24.8492 9.55694 24.813C9.82327 24.7772 10.0896 24.7413 10.3294 24.7133C10.5661 24.6858 10.8041 24.6636 11.013 24.6577C11.1719 24.6532 11.4901 24.648 11.7786 24.7641C11.794 24.7703 11.8095 24.7777 11.8245 24.7846C15.4958 26.4824 19.9776 25.8247 23.0013 22.8003C26.8643 18.936 26.8718 12.6651 23.0013 8.7944C22.611 8.40396 22.6111 7.77083 23.0013 7.38034C23.3918 6.98998 24.0258 6.98986 24.4163 7.38034C29.0687 12.0333 29.0589 19.5703 24.4163 24.2143C20.8147 27.8172 15.4981 28.6185 11.1175 26.6567C11.1044 26.6567 11.0883 26.6562 11.0696 26.6567C10.9505 26.6601 10.7824 26.6749 10.5608 26.7006C10.3424 26.7261 10.0966 26.7588 9.82354 26.7954C9.55427 26.8315 9.26176 26.8705 8.96612 26.9048C8.38401 26.9722 7.73894 27.0281 7.16729 27.0034C6.8808 26.991 6.57795 26.9574 6.29327 26.8794C6.01595 26.8032 5.68072 26.6648 5.40752 26.3921L5.40655 26.3911C5.13367 26.1178 4.9954 25.7827 4.91924 25.5053C4.84109 25.2206 4.80764 24.9179 4.79522 24.6313C4.77046 24.0596 4.82635 23.4148 4.89385 22.8325C4.92815 22.5367 4.9671 22.2445 5.00323 21.9751C5.03987 21.7018 5.07251 21.4554 5.09795 21.2368C5.12373 21.0152 5.13854 20.8472 5.1419 20.728C5.14241 20.7097 5.14094 20.6941 5.14092 20.6811C3.17853 16.3013 3.9815 10.9833 7.58428 7.38034L7.91534 7.061Z" fill="white"/>
<path fill-rule="evenodd" clip-rule="evenodd" d="M17.9338 17.0175L17.76 17.1111C16.9829 17.5296 16.7085 17.7388 16.7139 18.0819C16.7207 18.6199 16.271 19.063 15.7087 19.0708H15.6951C15.1381 19.0708 14.683 18.6433 14.6762 18.1092C14.6518 16.5471 15.9736 15.8362 16.7615 15.4126L16.9353 15.3177C17.6295 14.9513 17.9623 14.4691 17.9623 13.8362C17.9623 12.7953 17.0821 11.9493 15.9993 11.9493C14.9004 11.9493 14.0378 12.7771 14.0378 13.8362C14.0378 14.3743 13.5813 14.8109 13.0188 14.8109C12.4564 14.8109 12 14.3743 12 13.8362C12 11.7206 13.7946 10 15.9993 10C18.2041 10 20 11.7206 20 13.8362C20 15.1839 19.2651 16.3132 17.9338 17.0175ZM16.7153 21.0253C16.7153 21.5647 16.2589 22 15.6964 22C15.1327 22 14.6776 21.5647 14.6776 21.0253C14.6776 20.4873 15.1327 20.0468 15.6964 20.0468C16.2589 20.0468 16.7153 20.4795 16.7153 21.0176V21.0253Z" fill="white"/>
</svg>
