<svg width="46" height="40" viewBox="0 0 46 40" fill="none" xmlns="http://www.w3.org/2000/svg">
<path d="M0 24.7356V34.6667C0 37.6122 2.3537 40 5.25714 40H20.608C16.7113 31.7498 8.97437 26.0171 0 24.7356Z" fill="black"/>
<path d="M20.608 0H5.25714C2.3537 0 0 2.38781 0 5.33333V15.2645C8.97437 13.9791 16.7113 8.25024 20.608 0Z" fill="black"/>
<path d="M33.2571 0C33.2571 0 23.8727 15.8104 15.7258 20C23.8727 24.1896 33.2571 40 33.2571 40H40.7429C43.6463 40 46 37.6122 46 34.6667V5.33333C46 2.38781 43.6463 0 40.7429 0H33.2571Z" fill="black"/>
</svg>
